<svg width="1197" height="553" viewBox="0 0 1197 553" fill="none" xmlns="http://www.w3.org/2000/svg">
<path d="M426.772 107.826C444.464 123.733 459.684 140.615 471.95 160.932C472.392 161.661 472.835 162.39 473.291 163.141C491.568 193.583 503.455 229.808 503.818 265.429C503.829 266.301 503.839 267.174 503.85 268.072C504.042 287.787 503.792 306.886 499.199 326.184C498.965 327.168 498.731 328.153 498.491 329.168C490.196 362.843 473.208 395.16 450.151 421.23C449.384 422.109 448.616 422.988 447.826 423.893C436.874 436.204 425.376 447.196 412.002 456.873C411.387 457.321 410.771 457.769 410.136 458.23C385.806 475.68 357.339 488.103 328.076 494.676C326.698 494.993 326.698 494.993 325.293 495.318C267.866 507.974 206.287 495.529 156.723 464.944C144.402 457.109 133.149 448.039 122.652 437.948C121.016 436.382 119.359 434.841 117.698 433.301C102.972 419.44 91.8266 402.958 81.7465 385.588C81.3436 384.907 80.9407 384.225 80.5256 383.523C51.0124 333.32 46.7427 271.493 61.3397 216.058C76.4871 161.744 114.122 112.312 163.654 84.2883C247.725 37.5493 353.127 43.4384 426.772 107.826Z" fill="white"/>
<path d="M193.936 85.9702C196.917 87.9827 196.917 87.9827 200.204 90.628C205.665 94.9384 211.233 99.0255 216.962 102.981C224.497 108.201 231.925 113.548 239.293 118.996C240.463 119.857 240.463 119.857 241.656 120.735C242.489 121.381 243.323 122.027 244.181 122.693C246.796 124.479 249.199 125.784 252.035 127.148C258.459 130.49 264.436 133.803 266.97 140.875C268.506 148.527 268.512 156.148 268.289 163.921C268.189 168.057 268.288 172.157 268.407 176.292C268.495 194.673 268.495 194.673 264.101 200.749C259.81 204.856 254.905 207.587 249.567 210.153C246.69 211.585 244.227 213.38 241.694 215.339C240.92 215.907 240.146 216.476 239.349 217.062C238.593 217.619 237.837 218.177 237.058 218.752C229.422 224.355 221.774 229.94 214.033 235.4C210.187 238.116 206.413 240.87 202.741 243.813C202.069 244.336 201.396 244.858 200.703 245.397C199.462 246.365 198.24 247.358 197.045 248.382C194.705 250.173 192.703 251.312 189.697 251.026C186.986 250.215 184.519 249.159 181.947 247.982C180.757 247.443 179.568 246.905 178.342 246.35C174.225 244.452 170.15 242.473 166.074 240.489C163.981 239.478 161.887 238.47 159.792 237.463C158.444 236.809 157.1 236.146 155.761 235.475C153.084 234.137 150.507 232.912 147.636 232.039C144.98 231.19 143.599 230.514 141.619 228.541C138.823 222.895 137.082 217.005 135.283 210.989C134.735 209.244 134.183 207.501 133.627 205.758C132.773 203.074 131.921 200.389 131.082 197.7C128.248 188.62 125.106 179.656 121.931 170.689C112.438 143.869 112.438 143.869 114.37 137.814C115.852 135.803 115.852 135.803 117.755 133.924C118.46 133.222 119.165 132.52 119.891 131.797C120.654 131.065 121.418 130.333 122.204 129.578C122.987 128.816 123.769 128.054 124.576 127.269C131.657 120.477 139.13 114.423 147.068 108.652C147.966 107.984 148.864 107.315 149.789 106.627C183.39 82.3699 183.39 82.3699 193.936 85.9702Z" fill="#2955BB"/>
<path d="M362.465 84.1702C366.082 85.7366 369.658 87.3275 373.173 89.1065C373.936 89.491 374.7 89.8755 375.486 90.2717C394.97 100.22 411.382 112.533 427.262 127.449C428.351 128.412 429.443 129.372 430.536 130.331C431.546 131.251 432.556 132.171 433.597 133.12C434.956 134.331 434.956 134.331 436.343 135.567C438.91 139.355 437.94 141.396 437.071 145.811C436.337 148.425 435.542 151.023 434.698 153.606C434.459 154.344 434.219 155.083 433.973 155.844C433.187 158.263 432.392 160.68 431.596 163.096C431.043 164.789 430.49 166.482 429.938 168.175C428.782 171.714 427.622 175.252 426.458 178.789C424.971 183.31 423.494 187.834 422.02 192.36C420.881 195.854 419.738 199.345 418.592 202.837C418.046 204.504 417.501 206.172 416.957 207.84C416.196 210.175 415.428 212.508 414.658 214.841C414.223 216.166 413.788 217.491 413.34 218.856C409.985 227.986 409.985 227.986 406.894 230.431C406.224 230.733 405.554 231.035 404.863 231.346C404.099 231.703 403.335 232.06 402.547 232.427C401.726 232.785 400.905 233.143 400.06 233.512C399.209 233.903 398.358 234.293 397.482 234.696C394.769 235.937 392.044 237.149 389.318 238.36C387.497 239.185 385.677 240.013 383.857 240.843C379.767 242.706 375.67 244.551 371.562 246.376C369.646 247.267 367.783 248.271 365.928 249.282C362.954 250.578 362.954 250.578 360.6 250.391C358.492 249.452 356.723 248.423 354.844 247.089C353.771 246.334 353.771 246.334 352.677 245.564C351.91 245.013 351.142 244.463 350.352 243.895C349.54 243.32 348.729 242.745 347.893 242.152C340.062 236.583 332.313 230.902 324.563 225.222C319.442 221.472 314.297 217.756 309.138 214.058C308.401 213.528 307.664 212.999 306.905 212.453C306.172 211.929 305.44 211.404 304.685 210.864C303.932 210.293 303.18 209.721 302.405 209.132C299.677 207.215 299.677 207.215 296.063 205.856C291.566 203.687 288.231 201.931 285.568 197.654C283.136 189.246 283.487 180.342 283.661 171.673C283.728 167.489 283.639 163.328 283.535 159.145C283.417 138.619 283.417 138.619 288.759 133.11C292.466 130.165 296.515 128.306 300.827 126.369C302.559 125.207 304.263 124.002 305.919 122.737C307.021 121.947 307.021 121.947 308.146 121.142C308.878 120.617 309.61 120.092 310.364 119.551C312.039 118.352 313.714 117.152 315.388 115.952C316.225 115.353 317.062 114.753 317.924 114.135C320.405 112.358 322.886 110.581 325.368 108.805C326.176 108.227 326.984 107.648 327.817 107.052C329.435 105.895 331.055 104.74 332.676 103.587C336.979 100.522 341.244 97.416 345.468 94.2453C346.354 93.5888 347.24 92.9323 348.153 92.256C349.855 90.9936 351.547 89.7186 353.228 88.4293C358.877 84.2682 358.877 84.2682 362.465 84.1702Z" fill="#2955BB"/>
<path d="M148.234 241.938C150.633 242.92 152.996 243.99 155.327 245.123C155.988 245.442 156.649 245.76 157.331 246.089C159.434 247.105 161.532 248.133 163.629 249.161C165.011 249.83 166.393 250.499 167.776 251.167C170.498 252.482 173.21 253.815 175.918 255.157C178.477 256.418 181.028 257.567 183.656 258.694C184.823 259.208 185.989 259.723 187.191 260.252C188.221 260.682 189.25 261.112 190.311 261.555C194.081 264.42 194.849 267.84 196.192 272.18C196.841 274.078 197.49 275.975 198.144 277.871C201.228 286.839 204.205 295.843 207.209 304.837C208.403 308.41 209.604 311.981 210.812 315.55C212.276 319.877 213.727 324.209 215.169 328.543C215.719 330.189 216.274 331.833 216.833 333.476C217.613 335.77 218.376 338.069 219.135 340.369C219.573 341.674 220.011 342.979 220.462 344.324C221.278 347.863 221.325 349.774 220.171 353.186C217.948 356.008 217.948 356.008 215.13 358.923C214.128 359.975 213.128 361.027 212.128 362.079C210.714 363.558 210.714 363.558 209.271 365.066C207.967 366.521 206.671 367.982 205.388 369.454C204.811 370.083 204.234 370.712 203.639 371.36C201.566 373.689 201.566 373.689 199.884 376.448C197.119 380.324 194.482 383.76 189.696 385.11C183.288 386.049 176.823 385.746 170.369 385.563C168.282 385.542 166.194 385.527 164.106 385.516C158.638 385.475 153.173 385.369 147.706 385.249C142.117 385.139 136.527 385.09 130.937 385.035C119.989 384.92 109.042 384.736 98.0958 384.508C96.7031 382.136 95.3157 379.761 93.931 377.385C93.5413 376.722 93.1516 376.06 92.75 375.377C89.0611 369.03 86.2396 362.449 83.5858 355.616C82.9061 353.922 82.9061 353.922 82.2127 352.194C77.5011 340.303 74.02 328.206 71.4164 315.705C70.8369 313.179 70.1053 310.73 69.3568 308.248C68.0737 303.321 67.0276 298.73 68.6671 293.781C73.2596 287.878 80.1152 284.211 86.4703 280.43C90.8891 277.739 95.0182 274.693 99.1857 271.64C100.798 270.486 102.412 269.334 104.027 268.184C109.319 264.397 114.574 260.561 119.827 256.721C120.697 256.088 121.568 255.455 122.465 254.803C126.164 252.111 129.845 249.411 133.443 246.587C134.48 245.788 135.516 244.989 136.585 244.165C137.435 243.487 138.285 242.809 139.161 242.11C142.648 240.385 144.462 241.07 148.234 241.938Z" fill="#2955BB"/>
<path d="M415.497 241.027C417.689 242.048 419.53 243.195 421.48 244.621C422.25 245.178 423.02 245.736 423.813 246.31C424.636 246.917 425.46 247.523 426.308 248.148C428.083 249.438 429.859 250.727 431.634 252.017C432.992 253.008 432.992 253.008 434.378 254.019C437.706 256.44 441.056 258.831 444.409 261.219C450.329 265.437 456.232 269.678 462.106 273.96C463.005 274.615 463.904 275.27 464.83 275.945C466.606 277.247 468.378 278.555 470.143 279.871C473.811 282.594 477.421 285.232 481.406 287.482C484.624 289.382 487.037 290.893 489.389 293.781C490.285 298.304 489.717 302.224 488.763 306.709C488.289 308.95 487.917 311.193 487.554 313.455C483.963 334.123 476.572 355.291 466.538 373.774C465.771 375.197 465.038 376.639 464.336 378.094C463.053 380.496 461.802 382.49 459.96 384.508C456.456 385.444 454.306 385.728 450.793 385.677C449.883 385.698 448.973 385.718 448.035 385.739C445.032 385.793 442.033 385.784 439.03 385.769C436.935 385.783 434.84 385.8 432.746 385.818C428.355 385.845 423.965 385.839 419.574 385.812C413.964 385.781 408.359 385.843 402.749 385.931C398.421 385.987 394.094 385.987 389.766 385.972C387.7 385.972 385.633 385.99 383.566 386.028C367.441 386.283 367.441 386.283 361.752 381.905C359.276 378.923 357.297 375.95 355.325 372.627C354.154 371.26 352.952 369.915 351.697 368.623C350.896 367.774 350.896 367.774 350.079 366.908C349.562 366.367 349.045 365.826 348.513 365.269C346.919 363.593 345.332 361.914 343.772 360.208C342.263 358.56 342.263 358.56 340.566 357.07C338.993 355.536 338.993 355.536 336.796 352.105C336.836 348.649 337.867 345.641 338.975 342.385C339.225 341.557 339.474 340.73 339.731 339.877C340.595 337.031 341.518 334.207 342.45 331.381C342.991 329.732 342.991 329.732 343.543 328.05C344.167 326.147 344.792 324.245 345.418 322.343C347.199 316.928 348.941 311.503 350.677 306.074C352.124 301.558 353.582 297.045 355.043 292.533C355.774 290.264 356.502 287.993 357.225 285.721C358.253 282.49 359.299 279.265 360.349 276.04C360.81 274.572 360.81 274.572 361.281 273.074C363.557 266.163 365.558 262.906 372.18 259.354C373.671 258.656 375.168 257.969 376.668 257.291C377.467 256.921 378.265 256.551 379.087 256.17C381.631 254.995 384.18 253.833 386.729 252.671C388.43 251.886 390.131 251.101 391.832 250.314C399.964 246.565 399.964 246.565 403.389 245.033C404.783 244.404 406.169 243.758 407.547 243.094C412.454 240.812 412.454 240.812 415.497 241.027Z" fill="#2955BB"/>
<path d="M252.452 358.405C254.568 358.39 256.684 358.374 258.8 358.356C263.229 358.329 267.657 358.334 272.087 358.362C277.746 358.393 283.4 358.331 289.058 358.243C293.427 358.187 297.795 358.187 302.164 358.202C304.249 358.202 306.334 358.184 308.419 358.146C324.672 357.891 324.672 357.891 330.379 362.269C332.855 365.251 334.828 368.221 336.796 371.547C337.967 372.915 339.168 374.259 340.423 375.551C340.957 376.117 341.491 376.683 342.041 377.266C342.558 377.807 343.075 378.348 343.608 378.905C345.201 380.581 346.788 382.26 348.349 383.966C349.858 385.613 349.858 385.613 351.555 387.104C353.724 389.22 355.315 391.027 355.345 394.134C354.805 396.777 354.024 399.236 353.145 401.789C352.798 402.873 352.452 403.957 352.094 405.074C350.894 408.763 349.642 412.432 348.376 416.1C344.335 427.887 340.425 439.682 337.121 451.695C336.241 454.843 335.306 457.973 334.362 461.102C333.892 462.706 333.445 464.317 333.02 465.933C331.6 471.298 330.114 475.997 326.986 480.635C321.951 483.142 317.298 483.577 311.727 483.875C309.659 484.155 309.659 484.155 307.55 484.44C302.473 485.087 297.43 485.15 292.316 485.174C291.308 485.181 290.3 485.187 289.261 485.193C287.133 485.203 285.005 485.21 282.877 485.215C279.684 485.225 276.492 485.258 273.299 485.293C260.66 485.362 248.867 484.385 236.52 481.715C234.704 481.352 232.887 480.991 231.07 480.635C227.689 470.644 224.323 460.649 220.973 450.648C219.272 445.571 217.568 440.495 215.856 435.422C214.065 430.111 212.286 424.797 210.515 419.48C209.822 417.408 209.126 415.338 208.426 413.269C207.441 410.357 206.47 407.441 205.503 404.523C205.205 403.653 204.907 402.782 204.6 401.886C203.265 397.809 202.367 395.066 203.821 390.988C205.729 388.621 205.729 388.621 208.181 386.06C212.627 381.312 216.802 376.42 220.894 371.37C222.155 369.853 222.155 369.853 223.44 368.307C223.825 367.599 224.21 366.891 224.606 366.162C230.869 356.426 242.095 358.354 252.452 358.405Z" fill="#2955BB"/>
<path d="M279.505 209.544C283.098 210.922 285.988 212.93 289.042 215.206C290.403 216.194 291.764 217.183 293.125 218.172C293.844 218.699 294.563 219.227 295.304 219.77C298.399 222.031 301.52 224.256 304.64 226.483C307.129 228.259 309.616 230.039 312.101 231.82C312.937 232.419 313.773 233.018 314.635 233.635C316.329 234.85 318.024 236.064 319.718 237.279C330.473 244.985 341.244 252.669 352.055 260.299C351.35 264.129 350.373 267.743 349.144 271.44C348.772 272.562 348.401 273.685 348.018 274.842C347.413 276.653 347.413 276.653 346.797 278.5C346.378 279.762 345.96 281.024 345.529 282.325C344.188 286.37 342.842 290.413 341.496 294.456C340.17 298.446 338.845 302.436 337.522 306.426C336.699 308.904 335.875 311.382 335.05 313.86C331.542 324.422 328.186 335.019 324.806 345.625C294.593 345.625 264.379 345.625 233.25 345.625C222.711 314.294 222.711 314.294 219.587 303.367C218.237 298.785 216.723 294.259 215.202 289.731C214.694 288.208 214.186 286.686 213.677 285.163C212.911 282.867 212.14 280.573 211.355 278.284C210.617 276.135 209.896 273.981 209.177 271.825C208.75 270.568 208.322 269.31 207.881 268.014C207.057 264.471 206.9 262.609 208.181 259.219C209.964 257.389 209.964 257.389 212.281 255.763C213.133 255.154 213.986 254.545 214.864 253.917C215.783 253.283 216.703 252.649 217.65 251.996C219.064 250.993 219.064 250.993 220.507 249.971C223.292 248 226.09 246.048 228.89 244.098C230.251 243.135 231.611 242.17 232.969 241.203C235.384 239.484 237.804 237.771 240.228 236.065C244.864 232.797 249.481 229.505 254.095 226.209C254.928 225.617 255.761 225.025 256.619 224.415C260.381 221.731 264.106 219.025 267.733 216.163C268.325 215.701 268.917 215.239 269.527 214.763C271.077 213.543 272.611 212.303 274.145 211.062C276.848 209.535 276.848 209.535 279.505 209.544Z" fill="#120D44"/>
<path d="M442.521 260.299C450.204 265.276 457.63 270.532 464.96 276.006C469.233 279.184 473.491 282.237 478.055 284.993C488.804 291.625 488.804 291.625 490.304 297.156C490.152 300.5 489.673 303.522 488.833 306.761C488.28 308.98 487.897 311.184 487.537 313.442C484.023 334.084 476.605 355.352 466.532 373.773C465.771 375.193 465.059 376.64 464.393 378.106C461.344 384.052 461.344 384.052 457.662 385.265C454.796 385.51 452.05 385.48 449.176 385.352C448.143 385.339 447.111 385.327 446.047 385.315C442.757 385.266 439.473 385.158 436.186 385.048C433.953 385.005 431.72 384.965 429.486 384.93C424.02 384.835 418.557 384.686 413.092 384.508C413.368 383.933 413.645 383.359 413.929 382.766C415.203 380.114 416.474 377.461 417.746 374.808C418.18 373.905 418.614 373.001 419.062 372.07C436.268 336.148 442.011 299.87 442.521 260.299Z" fill="#2955BB"/>
<path d="M447.971 153.371C448.69 153.371 449.41 153.371 450.151 153.371C452.121 156.057 453.947 158.737 455.737 161.539C456.274 162.376 456.811 163.212 457.364 164.074C479.077 198.265 490.485 236.068 489.389 276.5C484.168 274.815 480.384 271.89 476.105 268.602C474.549 267.426 472.993 266.252 471.435 265.079C470.627 264.47 469.818 263.861 468.986 263.234C464.884 260.173 460.722 257.196 456.554 254.223C455.735 253.639 454.916 253.054 454.072 252.452C446.602 247.129 439.115 241.829 431.621 236.537C429.078 234.738 426.535 232.937 423.992 231.137C424.579 225.307 425.625 220.29 427.619 214.737C427.869 214.032 428.119 213.326 428.377 212.599C428.907 211.105 429.44 209.613 429.977 208.121C431.37 204.248 432.735 200.365 434.099 196.481C434.365 195.727 434.63 194.973 434.904 194.196C437.297 187.362 439.387 180.48 441.367 173.521C443.35 166.734 445.663 160.056 447.971 153.371Z" fill="#120D44"/>
<path d="M107.905 153.371C108.625 153.371 109.344 153.371 110.085 153.371C113.221 162.71 116.349 172.052 119.465 181.397C120.912 185.737 122.362 190.075 123.819 194.411C125.226 198.597 126.624 202.785 128.017 206.975C128.55 208.572 129.085 210.168 129.623 211.764C130.378 214 131.121 216.24 131.863 218.48C132.289 219.754 132.715 221.027 133.154 222.34C134.003 225.509 134.475 227.89 134.064 231.137C131.944 233.056 130.049 234.474 127.661 235.997C126.249 236.945 124.839 237.894 123.429 238.845C122.675 239.345 121.922 239.846 121.146 240.361C117.122 243.071 113.201 245.92 109.268 248.755C107.608 249.946 105.947 251.136 104.286 252.325C103.451 252.923 102.617 253.521 101.756 254.138C99.1327 256.017 96.507 257.892 93.8807 259.767C93.0121 260.388 92.1434 261.008 91.2485 261.648C89.6033 262.823 87.9578 263.997 86.3117 265.171C85.5555 265.712 84.7992 266.252 84.0201 266.809C82.9215 267.594 82.9215 267.594 81.8008 268.395C78.7063 270.645 75.6728 272.973 72.6463 275.313C70.847 276.5 70.847 276.5 68.6671 276.5C67.3417 233.499 80.6392 191.706 105.725 156.611C106.445 155.542 107.164 154.473 107.905 153.371Z" fill="#120D44"/>
<path d="M342.245 76.6856C343.324 77.7548 343.324 77.7548 344.425 78.8457C336.678 85.1781 328.634 91.016 320.441 96.7582C316.478 99.5444 312.535 102.358 308.593 105.173C307.772 105.756 306.951 106.339 306.106 106.94C301.912 109.933 297.777 112.977 293.713 116.142C292.926 116.749 292.14 117.355 291.33 117.98C289.839 119.136 288.358 120.305 286.89 121.489C282.047 125.229 282.047 125.229 278.547 125.479C274.267 123.53 270.66 120.86 266.902 118.066C266.045 117.44 265.187 116.814 264.303 116.17C261.575 114.177 258.857 112.173 256.139 110.168C253.547 108.271 250.952 106.378 248.357 104.485C246.642 103.233 244.929 101.98 243.217 100.726C238.79 97.4843 234.349 94.2664 229.878 91.0852C228.981 90.4468 228.084 89.8085 227.159 89.1507C225.448 87.9357 223.736 86.7233 222.02 85.5139C221.253 84.9688 220.485 84.4238 219.694 83.8622C218.684 83.1496 218.684 83.1496 217.654 82.4227C215.791 80.9909 214.17 79.452 212.541 77.7656C224.798 72.855 237.697 71.1131 250.689 69.125C251.931 68.9282 251.931 68.9282 253.197 68.7274C281.733 64.2674 315.056 66.5171 342.245 76.6856Z" fill="#120D44"/>
<path d="M367.314 398.549C394.291 398.549 421.267 398.549 449.061 398.549C446.606 404.631 446.606 404.631 444.028 407.565C443.464 408.212 442.899 408.859 442.317 409.526C441.71 410.203 441.103 410.88 440.477 411.577C439.844 412.289 439.211 413.001 438.559 413.734C413.85 441.267 382.241 463.777 346.605 475.234C345.526 475.234 344.447 475.234 343.335 475.234C346.903 457.234 353.737 439.718 359.48 422.311C362.065 414.469 364.651 406.628 367.314 398.549Z" fill="#120D44"/>
<path d="M107.905 398.549C134.882 398.549 161.858 398.549 189.652 398.549C194.558 410.704 194.558 410.704 196.408 416.275C196.822 417.518 197.236 418.761 197.663 420.041C198.309 421.998 198.309 421.998 198.968 423.994C199.425 425.375 199.884 426.757 200.342 428.138C201.293 431.008 202.242 433.879 203.188 436.751C204.402 440.431 205.623 444.108 206.846 447.784C207.79 450.625 208.73 453.467 209.668 456.309C210.334 458.325 211.005 460.339 211.675 462.353C212.076 463.572 212.476 464.791 212.889 466.047C213.421 467.657 213.421 467.657 213.964 469.299C214.721 471.994 214.721 471.994 214.721 475.234C206.7 473.783 199.821 471.147 192.445 467.741C191.3 467.215 190.155 466.689 188.975 466.147C166.954 455.821 148.353 442.149 130.794 425.551C129.866 424.688 128.937 423.824 127.98 422.935C120.5 415.791 114.032 407.927 107.905 399.629C107.905 399.272 107.905 398.916 107.905 398.549Z" fill="#120D44"/>
<path d="M362.252 84.3347C366.047 85.6399 369.602 87.2996 373.173 89.1064C373.936 89.491 374.7 89.8755 375.486 90.2717C394.97 100.22 411.382 112.533 427.262 127.449C428.351 128.412 429.443 129.372 430.536 130.331C431.546 131.251 432.556 132.171 433.597 133.12C434.503 133.927 435.41 134.735 436.343 135.567C438.161 138.25 438.161 138.25 437.915 141.605C436.97 146.314 435.631 150.742 434.104 155.291C433.671 156.605 433.671 156.605 433.229 157.946C432.313 160.721 431.388 163.493 430.463 166.265C429.838 168.155 429.213 170.046 428.588 171.937C427.063 176.551 425.529 181.163 423.992 185.773C423.272 185.773 422.553 185.773 421.812 185.773C421.545 185.242 421.277 184.711 421.002 184.164C409.847 162.174 396.251 143.318 379.304 125.289C378.558 124.491 377.812 123.693 377.043 122.872C370.589 116.216 363.422 110.644 356.039 105.055C353.471 103.109 350.924 101.136 348.376 99.1647C347.06 98.1517 345.743 97.1389 344.425 96.1269C347.473 92.9815 350.616 90.2643 354.167 87.6888C355.076 87.0136 355.985 86.3383 356.921 85.6426C359.685 84.2461 359.685 84.2461 362.252 84.3347Z" fill="#2955BB"/>
<path d="M279.343 209.658C283.093 210.873 285.926 212.884 289.042 215.206C290.403 216.194 291.764 217.183 293.125 218.172C294.204 218.963 294.204 218.963 295.304 219.77C298.399 222.031 301.52 224.256 304.64 226.483C307.129 228.259 309.616 230.039 312.101 231.82C312.937 232.419 313.773 233.018 314.635 233.635C316.329 234.85 318.024 236.064 319.718 237.279C330.473 244.985 341.244 252.669 352.055 260.299C351.35 264.129 350.373 267.743 349.144 271.44C348.772 272.562 348.401 273.685 348.018 274.842C347.615 276.049 347.212 277.256 346.797 278.5C346.378 279.762 345.96 281.024 345.529 282.325C344.188 286.37 342.842 290.413 341.496 294.456C339.742 299.735 337.989 305.015 336.238 310.295C335.815 311.568 335.393 312.841 334.957 314.153C331.491 324.619 328.126 335.113 324.806 345.625C317.972 345.625 311.138 345.625 304.097 345.625C305.513 341.122 306.93 336.619 308.351 332.118C308.876 330.458 309.399 328.797 309.923 327.137C313.298 316.435 316.754 305.764 320.319 295.123C321.026 293.003 321.733 290.884 322.44 288.764C323.483 285.641 324.53 282.519 325.589 279.401C326.581 276.481 327.56 273.557 328.536 270.631C328.988 269.321 328.988 269.321 329.449 267.984C331.256 262.526 331.256 262.526 330.256 257.059C328.664 255.438 328.664 255.438 326.586 254.097C325.811 253.555 325.035 253.013 324.237 252.455C323.39 251.88 322.544 251.305 321.672 250.713C319.875 249.461 318.078 248.208 316.282 246.954C314.884 245.984 314.884 245.984 313.458 244.995C308.924 241.817 304.469 238.535 300.01 235.255C293.172 230.239 286.301 225.28 279.327 220.451C276.444 218.438 273.783 216.44 271.398 213.855C276.064 209.497 276.064 209.497 279.343 209.658Z" fill="#120D44"/>
<path d="M367.314 398.549C379.184 398.549 391.053 398.549 403.283 398.549C396.038 416.496 376.491 433.263 361.319 445.127C360.339 445.895 360.339 445.895 359.339 446.677C356.562 448.8 354.317 450.365 350.965 451.473C352.406 444.601 354.234 438.012 356.457 431.352C356.769 430.407 357.08 429.462 357.401 428.488C358.385 425.505 359.375 422.524 360.366 419.543C361.039 417.506 361.712 415.469 362.384 413.432C364.022 408.469 365.668 403.509 367.314 398.549Z" fill="#120D44"/>
<path d="M268.129 66.9649C292.297 65.8665 319.457 68.1629 342.245 76.6856C343.324 77.7548 343.324 77.7548 344.425 78.8457C342.681 80.269 340.932 81.6853 339.18 83.0985C338.206 83.888 337.232 84.6774 336.229 85.4907C333.526 87.4863 333.526 87.4863 330.256 88.5664C327.528 87.3734 324.971 86.1167 322.354 84.7186C305.237 75.9187 287.614 68.677 268.129 68.0449C268.129 67.6885 268.129 67.3321 268.129 66.9649Z" fill="#120D44"/>
<path d="M330.256 464.434C331.903 469.329 330.637 472.86 328.974 477.652C326.311 481.648 324.299 482.02 319.629 482.997C317.002 483.35 314.367 483.64 311.727 483.875C309.661 484.167 309.661 484.167 307.554 484.466C302.404 485.11 297.291 485.074 292.107 485.023C291.159 485.018 290.211 485.013 289.234 485.008C286.922 484.995 284.61 484.976 282.298 484.955C282.298 484.599 282.298 484.242 282.298 483.875C283.453 483.558 283.453 483.558 284.631 483.234C300.409 478.677 316.159 472.892 330.256 464.434Z" fill="#2955BB"/>
<path d="M564.139 313.172C558.102 313.172 552.616 311.609 547.68 308.484C542.744 305.359 538.802 300.672 535.854 294.422C532.907 288.172 531.433 280.413 531.433 271.144C531.433 261.521 532.96 253.602 536.014 247.387C539.068 241.173 543.063 236.574 547.999 233.591C552.971 230.608 558.315 229.116 564.033 229.116C568.33 229.116 572.005 229.862 575.059 231.354C578.113 232.81 580.634 234.692 582.623 237C584.612 239.308 586.121 241.705 587.151 244.191H587.683V202.909H613.731V312H587.95V298.737H587.151C586.05 301.258 584.487 303.619 582.463 305.821C580.439 308.023 577.9 309.798 574.846 311.148C571.827 312.497 568.259 313.172 564.139 313.172ZM573.195 292.877C576.355 292.877 579.054 291.989 581.291 290.214C583.528 288.403 585.251 285.864 586.458 282.597C587.665 279.33 588.269 275.494 588.269 271.091C588.269 266.616 587.665 262.763 586.458 259.532C585.286 256.3 583.564 253.815 581.291 252.075C579.054 250.335 576.355 249.464 573.195 249.464C569.963 249.464 567.229 250.352 564.991 252.128C562.754 253.903 561.05 256.407 559.878 259.638C558.741 262.87 558.173 266.687 558.173 271.091C558.173 275.494 558.759 279.33 559.931 282.597C561.103 285.864 562.79 288.403 564.991 290.214C567.229 291.989 569.963 292.877 573.195 292.877ZM630.204 312V230.182H655.506V245.097H656.358C657.849 239.699 660.282 235.686 663.655 233.058C667.029 230.395 670.953 229.063 675.427 229.063C676.635 229.063 677.878 229.152 679.156 229.33C680.434 229.472 681.624 229.702 682.725 230.022V252.661C681.482 252.234 679.849 251.897 677.824 251.648C675.836 251.4 674.06 251.276 672.498 251.276C669.408 251.276 666.621 251.968 664.135 253.353C661.684 254.702 659.749 256.602 658.329 259.053C656.944 261.467 656.251 264.308 656.251 267.575V312H630.204ZM713.327 313.385C708.107 313.385 703.472 312.515 699.424 310.775C695.411 308.999 692.233 306.336 689.889 302.785C687.581 299.198 686.427 294.706 686.427 289.308C686.427 284.763 687.226 280.928 688.824 277.803C690.422 274.678 692.624 272.138 695.429 270.185C698.235 268.232 701.466 266.759 705.124 265.764C708.781 264.734 712.688 264.042 716.843 263.687C721.494 263.261 725.241 262.817 728.082 262.355C730.923 261.858 732.982 261.165 734.261 260.278C735.575 259.354 736.232 258.058 736.232 256.389V256.123C736.232 253.388 735.291 251.276 733.409 249.784C731.526 248.293 728.987 247.547 725.791 247.547C722.347 247.547 719.577 248.293 717.482 249.784C715.387 251.276 714.055 253.335 713.487 255.963L689.463 255.111C690.173 250.139 692.002 245.7 694.95 241.794C697.933 237.852 702.017 234.763 707.201 232.526C712.421 230.253 718.689 229.116 726.004 229.116C731.225 229.116 736.036 229.738 740.44 230.981C744.843 232.188 748.678 233.964 751.945 236.308C755.213 238.616 757.734 241.457 759.509 244.83C761.32 248.204 762.226 252.057 762.226 256.389V312H737.723V300.601H737.084C735.628 303.371 733.764 305.714 731.491 307.632C729.254 309.55 726.608 310.988 723.554 311.947C720.536 312.906 717.127 313.385 713.327 313.385ZM721.37 296.339C724.176 296.339 726.697 295.771 728.934 294.635C731.207 293.499 733.018 291.936 734.367 289.947C735.717 287.923 736.392 285.58 736.392 282.916V275.139C735.646 275.53 734.74 275.885 733.675 276.205C732.645 276.524 731.509 276.826 730.266 277.11C729.023 277.394 727.744 277.643 726.431 277.856C725.117 278.069 723.856 278.264 722.649 278.442C720.198 278.832 718.103 279.436 716.363 280.253C714.659 281.07 713.345 282.135 712.421 283.449C711.534 284.727 711.09 286.254 711.09 288.03C711.09 290.729 712.048 292.788 713.966 294.209C715.919 295.629 718.387 296.339 721.37 296.339ZM824.655 230.182V249.358H772.027V230.182H824.655ZM783 312V226.027C783 219.706 784.19 214.468 786.569 210.313C788.948 206.123 792.251 202.998 796.477 200.938C800.703 198.843 805.585 197.795 811.125 197.795C814.747 197.795 818.156 198.08 821.352 198.648C824.584 199.18 826.981 199.66 828.544 200.086L824.389 219.156C823.43 218.836 822.258 218.57 820.873 218.357C819.524 218.143 818.245 218.037 817.038 218.037C813.984 218.037 811.889 218.712 810.752 220.061C809.616 221.411 809.048 223.257 809.048 225.601V312H783ZM883.369 230.182V249.358H831.753V230.182H883.369ZM842.566 210.58H868.614V286.272C868.614 287.87 868.862 289.166 869.359 290.161C869.892 291.119 870.656 291.812 871.65 292.238C872.644 292.629 873.834 292.824 875.219 292.824C876.213 292.824 877.261 292.735 878.362 292.558C879.498 292.344 880.35 292.167 880.918 292.025L884.86 310.828C883.617 311.183 881.859 311.627 879.587 312.16C877.349 312.692 874.668 313.03 871.543 313.172C865.435 313.456 860.197 312.746 855.83 311.041C851.497 309.301 848.177 306.602 845.869 302.945C843.596 299.287 842.495 294.688 842.566 289.148V210.58ZM942.841 230.182V249.358H891.225V230.182H942.841ZM902.039 210.58H928.086V286.272C928.086 287.87 928.335 289.166 928.832 290.161C929.365 291.119 930.128 291.812 931.123 292.238C932.117 292.629 933.306 292.824 934.691 292.824C935.686 292.824 936.733 292.735 937.834 292.558C938.971 292.344 939.823 292.167 940.391 292.025L944.333 310.828C943.09 311.183 941.332 311.627 939.059 312.16C936.822 312.692 934.141 313.03 931.016 313.172C924.908 313.456 919.67 312.746 915.302 311.041C910.97 309.301 907.65 306.602 905.341 302.945C903.069 299.287 901.968 294.688 902.039 289.148V210.58ZM956.131 312V230.182H981.433V245.097H982.286C983.777 239.699 986.21 235.686 989.583 233.058C992.957 230.395 996.881 229.063 1001.36 229.063C1002.56 229.063 1003.81 229.152 1005.08 229.33C1006.36 229.472 1007.55 229.702 1008.65 230.022V252.661C1007.41 252.234 1005.78 251.897 1003.75 251.648C1001.76 251.4 999.988 251.276 998.425 251.276C995.336 251.276 992.548 251.968 990.062 253.353C987.612 254.702 985.677 256.602 984.256 259.053C982.871 261.467 982.179 264.308 982.179 267.575V312H956.131ZM1039.25 313.385C1034.03 313.385 1029.4 312.515 1025.35 310.775C1021.34 308.999 1018.16 306.336 1015.82 302.785C1013.51 299.198 1012.35 294.706 1012.35 289.308C1012.35 284.763 1013.15 280.928 1014.75 277.803C1016.35 274.678 1018.55 272.138 1021.36 270.185C1024.16 268.232 1027.39 266.759 1031.05 265.764C1034.71 264.734 1038.62 264.042 1042.77 263.687C1047.42 263.261 1051.17 262.817 1054.01 262.355C1056.85 261.858 1058.91 261.165 1060.19 260.278C1061.5 259.354 1062.16 258.058 1062.16 256.389V256.123C1062.16 253.388 1061.22 251.276 1059.34 249.784C1057.45 248.293 1054.92 247.547 1051.72 247.547C1048.27 247.547 1045.5 248.293 1043.41 249.784C1041.31 251.276 1039.98 253.335 1039.41 255.963L1015.39 255.111C1016.1 250.139 1017.93 245.7 1020.88 241.794C1023.86 237.852 1027.94 234.763 1033.13 232.526C1038.35 230.253 1044.62 229.116 1051.93 229.116C1057.15 229.116 1061.96 229.738 1066.37 230.981C1070.77 232.188 1074.61 233.964 1077.87 236.308C1081.14 238.616 1083.66 241.457 1085.44 244.83C1087.25 248.204 1088.15 252.057 1088.15 256.389V312H1063.65V300.601H1063.01C1061.56 303.371 1059.69 305.714 1057.42 307.632C1055.18 309.55 1052.54 310.988 1049.48 311.947C1046.46 312.906 1043.05 313.385 1039.25 313.385ZM1047.3 296.339C1050.1 296.339 1052.62 295.771 1054.86 294.635C1057.13 293.499 1058.95 291.936 1060.3 289.947C1061.64 287.923 1062.32 285.58 1062.32 282.916V275.139C1061.57 275.53 1060.67 275.885 1059.6 276.205C1058.57 276.524 1057.44 276.826 1056.19 277.11C1054.95 277.394 1053.67 277.643 1052.36 277.856C1051.04 278.069 1049.78 278.264 1048.58 278.442C1046.13 278.832 1044.03 279.436 1042.29 280.253C1040.59 281.07 1039.27 282.135 1038.35 283.449C1037.46 284.727 1037.02 286.254 1037.02 288.03C1037.02 290.729 1037.98 292.788 1039.89 294.209C1041.85 295.629 1044.31 296.339 1047.3 296.339ZM1126.24 230.182L1139.72 257.135L1153.67 230.182H1179.93L1157.08 271.091L1180.79 312H1154.74L1139.72 284.834L1125.07 312H1098.65L1122.4 271.091L1099.82 230.182H1126.24Z" fill="white"/>
</svg>
