<svg width="512" height="512" viewBox="0 0 512 512" fill="none" xmlns="http://www.w3.org/2000/svg">
<path d="M391.551 99.832C407.783 114.559 421.747 130.19 433 149C433.406 149.675 433.812 150.35 434.23 151.046C450.999 179.231 461.905 212.77 462.238 245.75C462.248 246.558 462.258 247.365 462.268 248.197C462.444 266.45 462.214 284.133 458 302C457.786 302.912 457.571 303.824 457.351 304.763C449.74 335.941 434.154 365.863 413 390C412.296 390.813 411.592 391.627 410.867 392.465C400.819 403.864 390.27 414.041 378 423C377.435 423.415 376.87 423.829 376.288 424.256C353.966 440.412 327.848 451.915 301 458C299.736 458.294 299.736 458.294 298.447 458.594C245.76 470.312 189.262 458.79 143.789 430.473C132.485 423.218 122.161 414.821 112.529 405.478C111.029 404.028 109.508 402.601 107.984 401.176C94.4738 388.342 84.2482 373.082 75 357C74.6304 356.369 74.2607 355.738 73.8799 355.088C46.8024 308.607 42.8851 251.364 56.2773 200.039C70.1747 149.752 104.704 103.985 150.148 78.0391C227.28 34.7653 323.983 40.2179 391.551 99.832Z" fill="white"/>
<path d="M177.931 79.5963C180.665 81.4596 180.665 81.4596 183.681 83.9088C188.692 87.8996 193.8 91.6836 199.056 95.3463C205.969 100.179 212.784 105.129 219.545 110.173C220.618 110.971 220.618 110.971 221.712 111.784C222.477 112.382 223.241 112.98 224.029 113.596C226.428 115.25 228.633 116.458 231.235 117.721C237.128 120.815 242.613 123.883 244.937 130.431C246.346 137.515 246.352 144.571 246.147 151.768C246.056 155.597 246.146 159.393 246.255 163.221C246.337 180.24 246.337 180.24 242.305 185.865C238.368 189.668 233.868 192.197 228.97 194.572C226.331 195.898 224.071 197.56 221.747 199.374C221.037 199.9 220.327 200.426 219.596 200.968C218.902 201.485 218.208 202.002 217.493 202.534C210.488 207.721 203.471 212.892 196.369 217.948C192.841 220.462 189.378 223.011 186.009 225.737C185.392 226.221 184.775 226.704 184.139 227.203C183 228.099 181.88 229.019 180.783 229.966C178.636 231.625 176.799 232.68 174.041 232.414C171.554 231.664 169.291 230.686 166.931 229.596C165.839 229.098 164.748 228.599 163.624 228.085C159.846 226.328 156.107 224.495 152.368 222.659C150.448 221.723 148.527 220.789 146.605 219.857C145.368 219.252 144.135 218.638 142.906 218.017C140.45 216.778 138.086 215.644 135.452 214.835C133.015 214.049 131.748 213.423 129.931 211.596C127.366 206.369 125.769 200.916 124.118 195.346C123.615 193.731 123.109 192.116 122.599 190.503C121.815 188.018 121.034 185.532 120.264 183.042C117.664 174.636 114.781 166.336 111.868 158.034C103.158 133.202 103.158 133.202 104.931 127.596C106.291 125.734 106.291 125.734 108.036 123.995C108.683 123.345 109.33 122.695 109.997 122.026C110.697 121.348 111.397 120.67 112.118 119.971C112.837 119.266 113.555 118.56 114.295 117.833C120.792 111.545 127.647 105.939 134.931 100.596C135.755 99.9775 136.578 99.3588 137.427 98.7213C168.255 76.2629 168.255 76.2629 177.931 79.5963Z" fill="#2955BB"/>
<path d="M332.551 77.9297C335.869 79.38 339.15 80.8529 342.375 82.5C343.075 82.856 343.776 83.212 344.498 83.5789C362.373 92.7896 377.43 104.19 392 118C393 118.891 394.001 119.781 395.004 120.668C395.931 121.52 396.858 122.372 397.812 123.25C399.06 124.371 399.06 124.371 400.332 125.516C402.687 129.023 401.797 130.913 401 135C400.326 137.421 399.596 139.826 398.823 142.217C398.603 142.901 398.383 143.585 398.157 144.289C397.436 146.529 396.707 148.767 395.977 151.004C395.469 152.571 394.962 154.139 394.455 155.706C393.395 158.983 392.33 162.258 391.263 165.533C389.898 169.719 388.543 173.908 387.191 178.098C386.146 181.333 385.097 184.566 384.046 187.798C383.545 189.342 383.045 190.886 382.546 192.431C381.847 194.593 381.143 196.753 380.436 198.912C380.037 200.139 379.638 201.366 379.227 202.63C376.149 211.083 376.149 211.083 373.313 213.347C372.698 213.626 372.083 213.906 371.45 214.194C370.749 214.524 370.048 214.855 369.325 215.195C368.572 215.526 367.819 215.858 367.043 216.199C366.262 216.561 365.482 216.923 364.678 217.295C362.189 218.444 359.689 219.566 357.187 220.688C355.517 221.452 353.847 222.218 352.178 222.986C348.425 224.711 344.666 226.419 340.898 228.109C339.139 228.935 337.43 229.864 335.728 230.8C333 232 333 232 330.84 231.827C328.906 230.958 327.283 230.004 325.559 228.77C324.575 228.071 324.575 228.071 323.571 227.358C322.867 226.848 322.163 226.338 321.437 225.812C320.693 225.28 319.948 224.748 319.181 224.199C311.997 219.042 304.887 213.782 297.777 208.523C293.079 205.052 288.358 201.611 283.625 198.188C282.949 197.697 282.273 197.207 281.576 196.701C280.904 196.216 280.232 195.731 279.539 195.23C278.849 194.701 278.159 194.172 277.448 193.627C274.945 191.852 274.945 191.852 271.629 190.594C267.504 188.585 264.444 186.959 262 183C259.769 175.215 260.091 166.971 260.25 158.945C260.312 155.071 260.231 151.218 260.135 147.346C260.026 128.341 260.026 128.341 264.928 123.241C268.329 120.514 272.044 118.793 276 117C277.589 115.924 279.152 114.808 280.672 113.637C281.683 112.906 281.683 112.906 282.715 112.16C283.386 111.674 284.058 111.188 284.75 110.688C286.286 109.577 287.823 108.466 289.359 107.355C290.127 106.8 290.895 106.245 291.686 105.673C293.962 104.028 296.239 102.383 298.516 100.738C299.257 100.203 299.998 99.6669 300.762 99.115C302.247 98.0436 303.733 96.974 305.22 95.9065C309.169 93.0689 313.081 90.1934 316.957 87.2578C317.77 86.65 318.583 86.0422 319.42 85.416C320.981 84.2473 322.534 83.0667 324.076 81.873C329.259 78.0204 329.259 78.0204 332.551 77.9297Z" fill="#2955BB"/>
<path d="M136 224C138.201 224.91 140.37 225.9 142.508 226.949C143.115 227.244 143.721 227.539 144.346 227.843C146.276 228.784 148.201 229.736 150.125 230.688C151.393 231.307 152.661 231.926 153.93 232.545C156.427 233.763 158.915 234.997 161.399 236.24C163.747 237.407 166.088 238.471 168.499 239.514C169.569 239.99 170.64 240.466 171.742 240.957C172.687 241.355 173.632 241.753 174.605 242.163C178.063 244.816 178.768 247.982 180 252C180.595 253.757 181.191 255.514 181.791 257.27C184.62 265.572 187.352 273.909 190.108 282.236C191.203 285.545 192.306 288.851 193.414 292.155C194.757 296.161 196.088 300.171 197.412 304.184C197.916 305.708 198.425 307.231 198.938 308.752C199.653 310.876 200.353 313.004 201.05 315.134C201.452 316.342 201.853 317.55 202.267 318.795C203.016 322.072 203.059 323.841 202 327C199.961 329.613 199.961 329.613 197.375 332.313C196.456 333.286 195.538 334.26 194.621 335.234C193.324 336.603 193.324 336.603 192 338C190.804 339.346 189.615 340.7 188.438 342.063C187.908 342.645 187.378 343.227 186.833 343.827C184.931 345.983 184.931 345.983 183.388 348.538C180.851 352.126 178.432 355.308 174.041 356.558C168.161 357.426 162.23 357.147 156.309 356.977C154.393 356.958 152.478 356.944 150.563 356.934C145.546 356.896 140.532 356.798 135.516 356.687C130.388 356.584 125.259 356.539 120.131 356.488C110.086 356.381 100.043 356.211 90 356C88.7222 353.804 87.4493 351.606 86.179 349.405C85.8214 348.792 85.4638 348.178 85.0954 347.546C81.7109 341.669 79.1223 335.577 76.6875 329.25C76.0639 327.682 76.0639 327.682 75.4277 326.082C71.105 315.072 67.9112 303.872 65.5225 292.298C64.9908 289.959 64.3196 287.692 63.6328 285.395C62.4556 280.833 61.4958 276.582 63 272C67.2136 266.535 73.5033 263.139 79.334 259.638C83.3881 257.147 87.1764 254.327 91 251.5C92.4793 250.432 93.9598 249.366 95.4414 248.301C100.297 244.794 105.118 241.243 109.938 237.688C110.736 237.102 111.535 236.516 112.358 235.912C115.752 233.419 119.129 230.919 122.43 228.305C123.381 227.565 124.332 226.825 125.312 226.063C126.092 225.435 126.872 224.807 127.676 224.16C130.875 222.563 132.539 223.197 136 224Z" fill="#2955BB"/>
<path d="M381.207 223.157C383.217 224.102 384.906 225.164 386.695 226.484C387.402 227.001 388.108 227.517 388.836 228.049C389.591 228.61 390.347 229.172 391.125 229.75C392.754 230.944 394.383 232.138 396.012 233.332C397.258 234.25 397.258 234.25 398.529 235.186C401.582 237.428 404.656 239.641 407.732 241.852C413.164 245.757 418.579 249.684 423.969 253.648C424.794 254.255 425.618 254.862 426.468 255.487C428.098 256.692 429.723 257.903 431.343 259.121C434.707 261.642 438.02 264.085 441.676 266.168C444.628 267.927 446.842 269.326 449 272C449.822 276.187 449.301 279.817 448.425 283.969C447.991 286.044 447.649 288.121 447.316 290.215C444.022 309.35 437.241 328.949 428.035 346.062C427.331 347.38 426.659 348.714 426.014 350.062C424.837 352.285 423.69 354.132 422 356C418.785 356.867 416.813 357.13 413.589 357.083C412.754 357.102 411.919 357.12 411.059 357.14C408.304 357.19 405.553 357.182 402.797 357.168C400.875 357.181 398.953 357.196 397.031 357.213C393.003 357.238 388.975 357.233 384.947 357.208C379.799 357.179 374.657 357.236 369.51 357.318C365.54 357.37 361.57 357.37 357.599 357.355C355.703 357.355 353.807 357.373 351.911 357.408C337.117 357.643 337.117 357.643 331.896 353.59C329.625 350.829 327.809 348.076 326 345C324.925 343.734 323.823 342.489 322.672 341.293C321.937 340.507 321.937 340.507 321.188 339.705C320.713 339.204 320.239 338.703 319.75 338.187C318.288 336.635 316.832 335.082 315.4 333.501C314.016 331.976 314.016 331.976 312.459 330.596C311.016 329.176 311.016 329.176 309 326C309.038 322.8 309.983 320.014 311 317C311.229 316.234 311.457 315.468 311.693 314.678C312.486 312.043 313.332 309.428 314.188 306.812C314.684 305.286 314.684 305.286 315.19 303.728C315.763 301.966 316.336 300.205 316.911 298.444C318.544 293.431 320.143 288.407 321.736 283.381C323.063 279.2 324.402 275.022 325.741 270.845C326.413 268.743 327.08 266.641 327.743 264.537C328.687 261.546 329.646 258.56 330.609 255.574C331.033 254.215 331.033 254.215 331.464 252.828C333.553 246.43 335.388 243.414 341.464 240.125C342.833 239.479 344.205 238.843 345.582 238.215C346.314 237.872 347.047 237.53 347.801 237.177C350.135 236.089 352.473 235.013 354.812 233.937C356.373 233.211 357.934 232.484 359.494 231.756C366.955 228.284 366.955 228.284 370.098 226.866C371.377 226.284 372.648 225.685 373.912 225.071C378.415 222.958 378.415 222.958 381.207 223.157Z" fill="#2955BB"/>
<path d="M231.617 331.832C233.559 331.819 235.5 331.804 237.441 331.787C241.505 331.762 245.568 331.767 249.631 331.792C254.824 331.821 260.011 331.764 265.202 331.682C269.211 331.63 273.218 331.63 277.227 331.645C279.14 331.645 281.053 331.627 282.965 331.592C297.877 331.357 297.877 331.357 303.113 335.41C305.385 338.171 307.195 340.921 309 344C310.074 345.266 311.176 346.511 312.328 347.707C312.818 348.231 313.308 348.755 313.813 349.295C314.287 349.796 314.761 350.297 315.25 350.812C316.712 352.365 318.168 353.918 319.6 355.499C320.984 357.024 320.984 357.024 322.541 358.404C324.532 360.363 325.991 362.036 326.018 364.912C325.523 367.359 324.806 369.637 324 372C323.682 373.004 323.364 374.007 323.036 375.041C321.935 378.457 320.786 381.854 319.625 385.25C315.917 396.163 312.33 407.084 309.299 418.206C308.491 421.12 307.634 424.018 306.768 426.915C306.336 428.4 305.926 429.892 305.536 431.389C304.233 436.356 302.87 440.706 300 445C295.381 447.322 291.111 447.724 286 448C284.103 448.259 284.103 448.259 282.168 448.523C277.51 449.122 272.884 449.18 268.191 449.203C267.266 449.209 266.341 449.215 265.388 449.22C263.436 449.23 261.484 449.236 259.532 449.24C256.602 449.25 253.673 449.281 250.744 449.312C239.148 449.377 228.328 448.472 217 446C215.334 445.664 213.667 445.33 212 445C208.898 435.75 205.809 426.496 202.736 417.236C201.176 412.536 199.612 407.836 198.042 403.139C196.398 398.222 194.766 393.302 193.141 388.379C192.506 386.461 191.867 384.544 191.224 382.629C190.321 379.933 189.43 377.233 188.543 374.531C188.27 373.725 187.996 372.92 187.715 372.09C186.489 368.315 185.666 365.776 187 362C188.75 359.809 188.75 359.809 191 357.437C195.079 353.041 198.909 348.511 202.664 343.836C203.82 342.432 203.82 342.432 205 341C205.353 340.345 205.706 339.689 206.07 339.014C211.815 330 222.115 331.785 231.617 331.832Z" fill="#2955BB"/>
<path d="M256.438 194.008C259.734 195.284 262.386 197.143 265.188 199.25C266.436 200.165 267.685 201.081 268.934 201.996C269.593 202.484 270.253 202.973 270.933 203.476C273.773 205.57 276.635 207.63 279.498 209.691C281.782 211.336 284.063 212.984 286.344 214.633C287.111 215.187 287.878 215.742 288.668 216.313C290.223 217.438 291.777 218.562 293.332 219.687C303.2 226.822 313.081 233.936 323 241C322.353 244.546 321.457 247.892 320.329 251.315C319.988 252.354 319.647 253.394 319.296 254.465C318.742 256.141 318.742 256.141 318.176 257.852C317.792 259.02 317.408 260.189 317.012 261.393C315.782 265.138 314.547 268.881 313.312 272.625C312.096 276.319 310.88 280.013 309.666 283.707C308.912 286.002 308.156 288.296 307.399 290.59C304.18 300.369 301.101 310.18 298 320C270.28 320 242.56 320 214 320C204.331 290.992 204.331 290.992 201.465 280.875C200.226 276.633 198.837 272.443 197.441 268.25C196.975 266.84 196.509 265.43 196.043 264.021C195.34 261.895 194.632 259.771 193.912 257.652C193.235 255.662 192.574 253.667 191.914 251.672C191.522 250.508 191.129 249.343 190.725 248.144C189.968 244.863 189.825 243.138 191 240C192.636 238.306 192.636 238.306 194.762 236.801C195.544 236.237 196.326 235.673 197.131 235.092C197.975 234.504 198.818 233.917 199.688 233.313C200.985 232.385 200.985 232.385 202.308 231.438C204.864 229.613 207.431 227.806 210 226C211.249 225.109 212.496 224.216 213.742 223.32C215.958 221.729 218.178 220.143 220.402 218.563C224.655 215.538 228.891 212.489 233.125 209.438C233.889 208.889 234.653 208.341 235.44 207.777C238.892 205.291 242.309 202.786 245.637 200.137C246.18 199.709 246.723 199.281 247.283 198.84C248.705 197.71 250.113 196.563 251.52 195.414C254 194 254 194 256.438 194.008Z" fill="#120D44"/>
<path d="M406 241C413.049 245.609 419.862 250.475 426.587 255.543C430.508 258.485 434.414 261.312 438.602 263.863C448.464 270.004 448.464 270.004 449.84 275.125C449.7 278.22 449.261 281.019 448.49 284.018C447.982 286.072 447.631 288.113 447.301 290.203C444.077 309.314 437.271 329.006 428.029 346.061C427.331 347.376 426.678 348.715 426.066 350.073C423.27 355.578 423.27 355.578 419.891 356.701C417.262 356.927 414.742 356.9 412.105 356.781C411.158 356.77 410.211 356.759 409.235 356.747C406.217 356.702 403.204 356.602 400.188 356.5C398.139 356.46 396.09 356.423 394.041 356.391C389.026 356.303 384.014 356.165 379 356C379.253 355.468 379.507 354.936 379.768 354.388C380.936 351.932 382.103 349.476 383.27 347.02C383.668 346.183 384.066 345.346 384.477 344.484C400.263 311.226 405.532 277.637 406 241Z" fill="#2955BB"/>
<path d="M411 142C411.66 142 412.32 142 413 142C414.808 144.487 416.483 146.969 418.125 149.562C418.618 150.337 419.111 151.111 419.618 151.909C439.539 183.565 450.006 218.566 449 256C444.21 254.44 440.738 251.732 436.812 248.688C435.385 247.599 433.957 246.512 432.527 245.426C431.786 244.862 431.045 244.298 430.281 243.717C426.517 240.883 422.699 238.127 418.875 235.375C418.123 234.834 417.372 234.293 416.598 233.735C409.744 228.807 402.875 223.899 396 219C393.666 217.334 391.333 215.667 389 214C389.539 208.602 390.498 203.958 392.328 198.816C392.557 198.163 392.787 197.51 393.023 196.837C393.509 195.454 393.999 194.072 394.491 192.691C395.77 189.105 397.022 185.51 398.273 181.914C398.517 181.216 398.76 180.517 399.011 179.798C401.207 173.471 403.124 167.099 404.941 160.656C406.761 154.372 408.883 148.19 411 142Z" fill="#120D44"/>
<path d="M99 142C99.66 142 100.32 142 101 142C103.877 150.646 106.746 159.296 109.605 167.948C110.933 171.966 112.264 175.983 113.601 179.997C114.891 183.873 116.174 187.75 117.452 191.629C117.941 193.108 118.432 194.586 118.926 196.063C119.618 198.134 120.3 200.207 120.98 202.282C121.371 203.461 121.762 204.64 122.165 205.855C122.944 208.79 123.377 210.994 123 214C121.054 215.777 119.316 217.09 117.125 218.5C115.83 219.378 114.536 220.257 113.242 221.137C112.551 221.6 111.86 222.063 111.147 222.541C107.456 225.049 103.859 227.687 100.25 230.312C98.7269 231.415 97.2035 232.516 95.6797 233.617C94.9137 234.171 94.1476 234.725 93.3584 235.296C90.9513 237.035 88.5423 238.772 86.1328 240.508C85.3359 241.082 84.5389 241.657 83.7178 242.249C82.2084 243.337 80.6987 244.424 79.1885 245.511C78.4946 246.011 77.8008 246.512 77.0859 247.027C76.0781 247.754 76.0781 247.754 75.0498 248.496C72.2107 250.579 69.4275 252.735 66.6509 254.901C65 256 65 256 63 256C61.784 216.187 73.9841 177.493 97 145C97.66 144.01 98.32 143.02 99 142Z" fill="#120D44"/>
<path d="M314 71C314.99 71.99 314.99 71.99 316 73C308.892 78.8629 301.512 84.268 293.995 89.5845C290.359 92.1641 286.742 94.7689 283.125 97.375C282.372 97.9149 281.619 98.4548 280.843 99.011C276.995 101.782 273.201 104.601 269.473 107.531C268.751 108.093 268.03 108.654 267.287 109.233C265.919 110.303 264.56 111.386 263.213 112.482C258.77 115.945 258.77 115.945 255.559 116.176C251.632 114.371 248.323 111.899 244.875 109.313C244.088 108.733 243.301 108.154 242.49 107.557C239.988 105.712 237.494 103.856 235 102C232.622 100.244 230.241 98.491 227.86 96.7383C226.287 95.5796 224.715 94.4195 223.144 93.2578C219.083 90.2567 215.008 87.2774 210.906 84.332C210.083 83.741 209.26 83.15 208.412 82.541C206.842 81.4161 205.271 80.2936 203.697 79.1738C202.993 78.6692 202.288 78.1645 201.562 77.6445C200.636 76.9848 200.636 76.9848 199.691 76.3118C197.982 74.9862 196.494 73.5613 195 72C206.246 67.4534 218.08 65.8407 230 64C231.139 63.8178 231.139 63.8178 232.301 63.6319C258.482 59.5025 289.055 61.5855 314 71Z" fill="#120D44"/>
<path d="M337 369C361.75 369 386.5 369 412 369C409.747 374.631 409.747 374.631 407.383 377.348C406.865 377.947 406.347 378.546 405.813 379.163C405.256 379.79 404.699 380.417 404.125 381.062C403.544 381.722 402.963 382.381 402.365 383.06C379.695 408.551 350.695 429.392 318 440C317.01 440 316.02 440 315 440C318.274 423.334 324.543 407.117 329.812 391C332.184 383.74 334.556 376.48 337 369Z" fill="#120D44"/>
<path d="M99 369C123.75 369 148.5 369 174 369C178.502 380.254 178.502 380.254 180.198 385.412C180.578 386.563 180.958 387.713 181.35 388.899C181.942 390.711 181.942 390.711 182.547 392.559C182.967 393.838 183.387 395.116 183.808 396.395C184.68 399.053 185.551 401.711 186.419 404.37C187.533 407.777 188.653 411.181 189.775 414.585C190.641 417.215 191.503 419.846 192.364 422.478C192.976 424.344 193.591 426.209 194.206 428.074C194.573 429.202 194.941 430.331 195.319 431.494C195.808 432.984 195.808 432.984 196.306 434.505C197 437 197 437 197 440C189.641 438.656 183.33 436.215 176.562 433.062C175.512 432.575 174.462 432.088 173.379 431.586C153.175 422.026 136.109 409.368 120 394C119.148 393.201 118.296 392.402 117.418 391.578C110.555 384.964 104.621 377.683 99 370C99 369.67 99 369.34 99 369Z" fill="#120D44"/>
<path d="M332.355 78.082C335.837 79.2905 339.099 80.8271 342.375 82.5C343.075 82.856 343.776 83.212 344.498 83.5789C362.373 92.7896 377.43 104.19 392 118C393 118.891 394.001 119.781 395.004 120.668C395.931 121.52 396.858 122.372 397.812 123.25C398.644 123.998 399.475 124.745 400.332 125.516C402 128 402 128 401.774 131.107C400.907 135.466 399.679 139.566 398.277 143.777C397.88 144.994 397.88 144.994 397.475 146.236C396.634 148.805 395.786 151.371 394.938 153.937C394.363 155.688 393.79 157.439 393.217 159.189C391.817 163.462 390.411 167.731 389 172C388.34 172 387.68 172 387 172C386.755 171.508 386.509 171.016 386.257 170.51C376.022 150.15 363.549 132.693 348 116C347.316 115.261 346.631 114.523 345.926 113.762C340.005 107.6 333.429 102.44 326.655 97.2661C324.299 95.4641 321.963 93.6378 319.625 91.8125C318.417 90.8746 317.209 89.9369 316 89C318.796 86.0878 321.679 83.572 324.938 81.1875C325.772 80.5623 326.606 79.9371 327.465 79.293C330 78 330 78 332.355 78.082Z" fill="#2955BB"/>
<path d="M256.289 194.113C259.729 195.238 262.329 197.1 265.188 199.25C266.436 200.165 267.685 201.081 268.934 201.996C269.923 202.729 269.923 202.729 270.933 203.476C273.773 205.57 276.635 207.63 279.498 209.691C281.782 211.336 284.063 212.984 286.344 214.633C287.111 215.187 287.878 215.742 288.668 216.313C290.223 217.438 291.777 218.562 293.332 219.687C303.2 226.822 313.081 233.936 323 241C322.353 244.546 321.457 247.892 320.329 251.315C319.988 252.354 319.647 253.394 319.296 254.465C318.926 255.582 318.557 256.7 318.176 257.852C317.792 259.02 317.408 260.189 317.012 261.393C315.782 265.138 314.547 268.881 313.312 272.625C311.703 277.513 310.095 282.401 308.488 287.289C308.101 288.468 307.713 289.647 307.314 290.862C304.133 300.551 301.046 310.267 298 320C291.73 320 285.46 320 279 320C280.299 315.831 281.599 311.662 282.903 307.494C283.384 305.957 283.865 304.42 284.345 302.882C287.441 292.974 290.613 283.094 293.883 273.242C294.532 271.28 295.181 269.317 295.83 267.355C296.786 264.463 297.747 261.572 298.719 258.686C299.629 255.982 300.526 253.275 301.422 250.566C301.837 249.353 301.837 249.353 302.26 248.115C303.918 243.062 303.918 243.062 303 238C301.539 236.5 301.539 236.5 299.633 235.258C298.922 234.756 298.21 234.254 297.478 233.738C296.701 233.205 295.925 232.673 295.125 232.125C293.476 230.966 291.827 229.806 290.18 228.645C288.897 227.747 288.897 227.747 287.589 226.831C283.428 223.889 279.341 220.849 275.25 217.812C268.977 213.169 262.672 208.577 256.274 204.107C253.63 202.243 251.188 200.393 249 198C253.28 193.964 253.28 193.964 256.289 194.113Z" fill="#120D44"/>
<path d="M337 369C347.89 369 358.78 369 370 369C363.353 385.617 345.419 401.14 331.5 412.125C330.601 412.835 330.601 412.835 329.683 413.56C327.135 415.526 325.076 416.975 322 418C323.322 411.638 324.999 405.538 327.039 399.371C327.325 398.496 327.61 397.621 327.905 396.719C328.808 393.957 329.716 391.197 330.625 388.438C331.243 386.552 331.86 384.665 332.477 382.779C333.979 378.184 335.49 373.592 337 369Z" fill="#120D44"/>
<path d="M246 62C268.174 60.9831 293.092 63.1093 314 71C314.99 71.99 314.99 71.99 316 73C314.4 74.3177 312.795 75.629 311.188 76.9375C310.294 77.6684 309.401 78.3993 308.48 79.1524C306 81 306 81 303 82C300.498 80.8955 298.151 79.7319 295.75 78.4375C280.046 70.29 263.878 63.5852 246 63C246 62.67 246 62.34 246 62Z" fill="#120D44"/>
<path d="M303 430C304.511 434.532 303.349 437.802 301.824 442.238C299.38 445.938 297.535 446.283 293.25 447.188C290.84 447.514 288.422 447.783 286 448C284.105 448.271 284.105 448.271 282.172 448.547C277.447 449.144 272.756 449.11 268 449.062C267.13 449.058 266.26 449.053 265.363 449.049C263.242 449.037 261.121 449.019 259 449C259 448.67 259 448.34 259 448C260.06 447.706 260.06 447.706 261.141 447.406C275.617 443.187 290.067 437.831 303 430Z" fill="#2955BB"/>
</svg>
